<svg width="175" height="47" viewBox="0 0 175 47" fill="none" xmlns="http://www.w3.org/2000/svg">
<g id="Group 3934">
<g id="Group 3931">
<ellipse id="Ellipse 17" cx="23.5" cy="23.9585" rx="23.5" ry="23" fill="white"/>
<path id="Vector" d="M24.9796 35.8301V24.0189H28.5295L29 19.8619H24.9796L24.9856 17.7811C24.9856 16.6969 25.0954 16.1162 26.7557 16.1162H28.9751V11.9585H25.4245C21.1595 11.9585 19.6586 13.975 19.6586 17.3666V19.8622H17V24.0196H19.6586V35.6627C20.6944 35.8562 21.7651 35.9585 22.8615 35.9585C23.5697 35.9585 24.2773 35.9156 24.9796 35.8301V35.8301Z" fill="#006AFF"/>
</g>
<g id="Group 3932">
<ellipse id="Ellipse 18" cx="87.5" cy="23.9585" rx="23.5" ry="23" fill="white"/>
<path id="Vector_2" d="M83.2333 32.9585C91.9129 32.9585 96.6595 25.6494 96.6595 19.3112C96.6595 19.1036 96.6554 18.897 96.6461 18.6912C97.5697 18.0119 98.3668 17.1708 99 16.2074C98.1545 16.5895 97.2446 16.8467 96.2901 16.9626C97.2644 16.3688 98.0123 15.4294 98.3652 14.3097C97.4389 14.8682 96.4255 15.262 95.3688 15.4739C94.5077 14.5416 93.2817 13.9585 91.9243 13.9585C89.3184 13.9585 87.2052 16.1065 87.2052 18.7543C87.2052 19.1308 87.2466 19.4968 87.3276 19.848C83.4057 19.6474 79.928 17.7388 77.6006 14.8366C77.1814 15.5686 76.9609 16.4005 76.9616 17.2474C76.9616 18.9115 77.7947 20.3805 79.0615 21.24C78.3122 21.2167 77.5792 21.011 76.9244 20.6401C76.9237 20.6602 76.9237 20.6798 76.9237 20.7014C76.9237 23.0243 78.5502 24.9637 80.7094 25.4032C80.3039 25.5155 79.8855 25.5722 79.4651 25.572C79.1616 25.572 78.8658 25.5416 78.5783 25.4855C79.179 27.3913 80.9211 28.7782 82.9864 28.8169C81.3713 30.1037 79.3368 30.8701 77.1256 30.8701C76.7494 30.8704 76.3736 30.8482 76 30.8036C78.0884 32.1642 80.5682 32.9582 83.2335 32.9582" fill="#1DA1F2"/>
</g>
<g id="Group 3933">
<circle id="Ellipse 19" cx="152" cy="23.9585" r="23" fill="white"/>
<path id="Vector_3" d="M153.142 33.9323L147.193 33.8238C145.266 33.786 143.335 33.8615 141.447 33.4698C138.574 32.8847 138.37 30.0155 138.157 27.6089C137.864 24.2254 137.977 20.7805 138.531 17.4253C138.844 15.5427 140.074 14.4193 141.977 14.2971C148.4 13.8534 154.865 13.906 161.274 14.113C161.951 14.1319 162.633 14.2357 163.3 14.3537C166.594 14.9294 166.675 18.1808 166.888 20.9178C167.101 23.6831 167.011 26.4626 166.604 29.2091C166.278 31.4831 165.653 33.39 163.016 33.5741C159.712 33.8148 156.484 34.0086 153.171 33.9469C153.171 33.9323 153.152 33.9323 153.142 33.9323ZM149.645 28.1752C152.134 26.75 154.577 25.3485 157.052 23.9328C154.558 22.5076 152.12 21.1061 149.645 19.6905V28.1752Z" fill="#FF0000"/>
</g>
</g>
</svg>
